<svg width="91" height="20" viewBox="0 0 91 20" fill="none" xmlns="http://www.w3.org/2000/svg">
<path d="M0.616477 6.14062V4.81818H8.49645V6.14062H5.3196V15H3.78835V6.14062H0.616477ZM9.32546 15V7.36364H10.7623V8.5767H10.8418C10.981 8.16572 11.2263 7.84257 11.5776 7.60724C11.9322 7.36861 12.3333 7.24929 12.7807 7.24929C12.8735 7.24929 12.9829 7.2526 13.1088 7.25923C13.2381 7.26586 13.3392 7.27415 13.4121 7.28409V8.70597C13.3525 8.68939 13.2464 8.67116 13.0939 8.65128C12.9415 8.62808 12.789 8.61648 12.6365 8.61648C12.2852 8.61648 11.972 8.69105 11.6969 8.8402C11.4251 8.98603 11.2097 9.18987 11.0506 9.4517C10.8915 9.71023 10.812 10.0052 10.812 10.3366V15H9.32546ZM15.8706 17.8636C15.6485 17.8636 15.4463 17.8454 15.264 17.8089C15.0817 17.7758 14.9458 17.7393 14.8564 17.6996L15.2143 16.4815C15.4861 16.5545 15.728 16.5859 15.9402 16.576C16.1523 16.5661 16.3395 16.4865 16.502 16.3374C16.6677 16.1882 16.8135 15.9446 16.9395 15.6065L17.1234 15.0994L14.3294 7.36364H15.9203L17.8542 13.2898H17.9338L19.8677 7.36364H21.4636L18.3166 16.0192C18.1708 16.4169 17.9851 16.7533 17.7598 17.0284C17.5344 17.3068 17.2659 17.5156 16.9544 17.6548C16.6428 17.794 16.2815 17.8636 15.8706 17.8636ZM28.788 15.169C28.3041 15.169 27.8666 15.0795 27.4755 14.9006C27.0844 14.7183 26.7745 14.4548 26.5458 14.1101C26.3204 13.7654 26.2077 13.3428 26.2077 12.8423C26.2077 12.4115 26.2906 12.0568 26.4563 11.7784C26.622 11.5 26.8458 11.2796 27.1275 11.1172C27.4092 10.9548 27.7241 10.8321 28.0721 10.7493C28.4201 10.6664 28.7747 10.6035 29.136 10.5604C29.5934 10.5073 29.9646 10.4643 30.2496 10.4311C30.5347 10.3946 30.7418 10.3366 30.8711 10.2571C31.0004 10.1776 31.065 10.0483 31.065 9.86932V9.83452C31.065 9.40033 30.9424 9.06392 30.6971 8.82528C30.4551 8.58665 30.0939 8.46733 29.6133 8.46733C29.1128 8.46733 28.7184 8.57836 28.43 8.80043C28.145 9.01918 27.9478 9.26278 27.8384 9.53125L26.4414 9.21307C26.6071 8.74905 26.8491 8.37453 27.1673 8.08949C27.4888 7.80114 27.8583 7.59233 28.2759 7.46307C28.6935 7.33049 29.1327 7.2642 29.5934 7.2642C29.8983 7.2642 30.2215 7.30066 30.5629 7.37358C30.9076 7.44318 31.229 7.57244 31.5273 7.76136C31.829 7.95028 32.0759 8.22041 32.2681 8.57173C32.4603 8.91974 32.5565 9.37216 32.5565 9.92898V15H31.1048V13.956H31.0451C30.949 14.1482 30.8048 14.3371 30.6126 14.5227C30.4203 14.7083 30.1734 14.8625 29.8718 14.9851C29.5702 15.1077 29.2089 15.169 28.788 15.169ZM29.1112 13.9759C29.5221 13.9759 29.8735 13.8946 30.1651 13.7322C30.4601 13.5698 30.6838 13.3577 30.8363 13.0959C30.9921 12.8307 31.07 12.5473 31.07 12.2457V11.2614C31.0169 11.3144 30.9142 11.3641 30.7617 11.4105C30.6126 11.4536 30.4419 11.4917 30.2496 11.5249C30.0574 11.5547 29.8701 11.5829 29.6879 11.6094C29.5056 11.6326 29.3531 11.6525 29.2305 11.669C28.9421 11.7055 28.6786 11.7668 28.44 11.853C28.2047 11.9392 28.0157 12.0634 27.8732 12.2259C27.734 12.3849 27.6644 12.5971 27.6644 12.8622C27.6644 13.2301 27.8003 13.5085 28.0721 13.6974C28.3439 13.883 28.6902 13.9759 29.1112 13.9759ZM37.7381 18.0227C37.1316 18.0227 36.6096 17.9432 36.1721 17.7841C35.7379 17.625 35.3832 17.4145 35.1081 17.1527C34.833 16.8909 34.6275 16.6042 34.4917 16.2926L35.7694 15.7656C35.8588 15.9115 35.9782 16.0656 36.1273 16.228C36.2798 16.3937 36.4853 16.5346 36.7438 16.6506C37.0056 16.7666 37.342 16.8246 37.753 16.8246C38.3165 16.8246 38.7821 16.687 39.15 16.4119C39.5179 16.1402 39.7019 15.706 39.7019 15.1094V13.608H39.6074C39.5179 13.7704 39.3887 13.951 39.2196 14.1499C39.0539 14.3487 38.8252 14.5211 38.5336 14.6669C38.2419 14.8127 37.8624 14.8857 37.3951 14.8857C36.7918 14.8857 36.2483 14.7448 35.7644 14.4631C35.2838 14.178 34.9026 13.7588 34.6209 13.2053C34.3425 12.6484 34.2033 11.964 34.2033 11.152C34.2033 10.34 34.3408 9.64394 34.6159 9.06392C34.8944 8.4839 35.2755 8.03977 35.7594 7.73153C36.2433 7.41998 36.7918 7.2642 37.405 7.2642C37.879 7.2642 38.2618 7.34375 38.5534 7.50284C38.8451 7.65862 39.0721 7.84091 39.2346 8.04972C39.4003 8.25852 39.5279 8.44247 39.6174 8.60156H39.7267V7.36364H41.1834V15.169C41.1834 15.8253 41.031 16.3639 40.726 16.7848C40.4211 17.2057 40.0085 17.5173 39.4881 17.7195C38.9711 17.9216 38.3877 18.0227 37.7381 18.0227ZM37.7232 13.6527C38.1507 13.6527 38.512 13.5533 38.807 13.3544C39.1053 13.1522 39.3307 12.8639 39.4831 12.4893C39.6389 12.1115 39.7168 11.6591 39.7168 11.1321C39.7168 10.6184 39.6406 10.166 39.4881 9.77486C39.3356 9.38376 39.1119 9.07884 38.8169 8.86009C38.522 8.63802 38.1574 8.52699 37.7232 8.52699C37.2757 8.52699 36.9029 8.64299 36.6046 8.875C36.3063 9.10369 36.0809 9.41525 35.9284 9.80966C35.7793 10.2041 35.7047 10.6449 35.7047 11.1321C35.7047 11.6326 35.781 12.0717 35.9334 12.4496C36.0859 12.8274 36.3113 13.1224 36.6096 13.3345C36.9112 13.5466 37.2824 13.6527 37.7232 13.6527ZM45.3993 15.169C44.9154 15.169 44.4779 15.0795 44.0868 14.9006C43.6957 14.7183 43.3858 14.4548 43.1571 14.1101C42.9318 13.7654 42.8191 13.3428 42.8191 12.8423C42.8191 12.4115 42.9019 12.0568 43.0676 11.7784C43.2334 11.5 43.4571 11.2796 43.7388 11.1172C44.0205 10.9548 44.3354 10.8321 44.6834 10.7493C45.0314 10.6664 45.3861 10.6035 45.7473 10.5604C46.2047 10.5073 46.5759 10.4643 46.861 10.4311C47.146 10.3946 47.3532 10.3366 47.4824 10.2571C47.6117 10.1776 47.6763 10.0483 47.6763 9.86932V9.83452C47.6763 9.40033 47.5537 9.06392 47.3084 8.82528C47.0665 8.58665 46.7052 8.46733 46.2246 8.46733C45.7241 8.46733 45.3297 8.57836 45.0414 8.80043C44.7563 9.01918 44.5591 9.26278 44.4498 9.53125L43.0527 9.21307C43.2185 8.74905 43.4604 8.37453 43.7786 8.08949C44.1001 7.80114 44.4696 7.59233 44.8873 7.46307C45.3049 7.33049 45.744 7.2642 46.2047 7.2642C46.5096 7.2642 46.8328 7.30066 47.1742 7.37358C47.5189 7.44318 47.8404 7.57244 48.1387 7.76136C48.4403 7.95028 48.6872 8.22041 48.8794 8.57173C49.0717 8.91974 49.1678 9.37216 49.1678 9.92898V15H47.7161V13.956H47.6564C47.5603 14.1482 47.4161 14.3371 47.2239 14.5227C47.0317 14.7083 46.7847 14.8625 46.4831 14.9851C46.1815 15.1077 45.8203 15.169 45.3993 15.169ZM45.7225 13.9759C46.1335 13.9759 46.4848 13.8946 46.7765 13.7322C47.0714 13.5698 47.2952 13.3577 47.4476 13.0959C47.6034 12.8307 47.6813 12.5473 47.6813 12.2457V11.2614C47.6283 11.3144 47.5255 11.3641 47.373 11.4105C47.2239 11.4536 47.0532 11.4917 46.861 11.5249C46.6687 11.5547 46.4815 11.5829 46.2992 11.6094C46.1169 11.6326 45.9644 11.6525 45.8418 11.669C45.5534 11.7055 45.29 11.7668 45.0513 11.853C44.816 11.9392 44.6271 12.0634 44.4846 12.2259C44.3453 12.3849 44.2757 12.5971 44.2757 12.8622C44.2757 13.2301 44.4116 13.5085 44.6834 13.6974C44.9552 13.883 45.3016 13.9759 45.7225 13.9759ZM51.1477 15V7.36364H52.6342V15H51.1477ZM51.8984 6.18537C51.6399 6.18537 51.4179 6.09919 51.2322 5.92685C51.05 5.75118 50.9588 5.54238 50.9588 5.30043C50.9588 5.05516 51.05 4.84635 51.2322 4.67401C51.4179 4.49834 51.6399 4.41051 51.8984 4.41051C52.157 4.41051 52.3774 4.49834 52.5597 4.67401C52.7453 4.84635 52.8381 5.05516 52.8381 5.30043C52.8381 5.54238 52.7453 5.75118 52.5597 5.92685C52.3774 6.09919 52.157 6.18537 51.8984 6.18537ZM56.1206 10.4659V15H54.6341V7.36364H56.0609V8.60653H56.1554C56.331 8.20218 56.6061 7.87737 56.9806 7.6321C57.3585 7.38684 57.8341 7.2642 58.4075 7.2642C58.9279 7.2642 59.3836 7.37358 59.7747 7.59233C60.1658 7.80777 60.469 8.12926 60.6845 8.55682C60.8999 8.98437 61.0076 9.51302 61.0076 10.1428V15H59.5211V10.3217C59.5211 9.76823 59.377 9.3357 59.0886 9.02415C58.8002 8.70928 58.4042 8.55185 57.9004 8.55185C57.5557 8.55185 57.2491 8.62642 56.9806 8.77557C56.7155 8.92472 56.505 9.14347 56.3493 9.43182C56.1968 9.71686 56.1206 10.0616 56.1206 10.4659Z" fill="#B42318"/>
<path d="M75.1667 10.0001H86.8334M86.8334 10.0001L81 4.16675M86.8334 10.0001L81 15.8334" stroke="#B42318" stroke-width="1.67" stroke-linecap="round" stroke-linejoin="round"/>
</svg>
